<svg width="20" height="20" viewBox="0 0 20 20" fill="none" xmlns="http://www.w3.org/2000/svg">
<path d="M15.5586 7.72985L14.5379 12.4055H17.6455C18.1231 12.4055 18.5103 12.7927 18.5103 13.2704C18.5103 13.748 18.1231 14.1353 17.6455 14.1353H14.1517L13.0369 19.2879C12.9469 19.7035 12.5793 20.0001 12.1541 20.0001C11.5783 20.0001 11.1495 19.4686 11.2712 18.9059L12.3034 14.1353H6.15172L5.03456 19.2985C4.94598 19.7079 4.58382 20.0001 4.16493 20.0001C3.59775 20.0001 3.17535 19.4766 3.2953 18.9222L4.33103 14.1353H0.864865C0.387213 14.1353 0 13.748 0 13.2704C0 12.7927 0.387213 12.4055 0.864865 12.4055H4.71724L5.73793 7.72985H2.35452C1.87687 7.72985 1.48966 7.34264 1.48966 6.86499C1.48966 6.38734 1.87687 6.00012 2.35452 6.00012H6.12414L7.26902 0.701987C7.35752 0.292438 7.71975 0.00012207 8.13875 0.00012207C8.70587 0.00012207 9.12827 0.523547 9.00849 1.07787L7.94483 6.00012H14.0966L15.2391 0.712621C15.329 0.296867 15.6967 0.00012207 16.122 0.00012207C16.6978 0.00012207 17.1266 0.531477 17.005 1.0942L15.9448 6.00012H19.1351C19.6128 6.00012 20 6.38734 20 6.86499C20 7.34264 19.6128 7.72985 19.1351 7.72985H15.5586ZM13.7103 7.72985H7.55862L6.53793 12.4055H12.6897L13.7103 7.72985Z" fill="#22B07D"/>
</svg>
